<svg width="470" height="338" viewBox="0 0 470 338" xmlns="http://www.w3.org/2000/svg" xmlns:xlink="http://www.w3.org/1999/xlink">
    <defs>
        <path d="M1.65 7.296C6.405.434 20.949 2.154 34.997 3.814c2.331.277 4.22.557 5.398.742A645.39 645.39 0 0 1 63.21 1.628C82.733-.524 89.396-.36 96.339 1.058c8.38 1.714 14.331 2.921 16.845 7.736 4.223 8.096-3.394 21.979-13.455 28.608-7.135 4.696-12.82 3.994-33.692 3.711-38.824-.536-45.1 2.048-53.503-4.561C11.522 35.769-.896 25.719.052 13.119.22 11.017.362 9.15 1.65 7.296z" id="my9vgv7z8a"/>
        <path d="M1.22 16.475C-1.34 13.027.454 6.82 3.602 3.368a8.85 8.85 0 0 1 2.996-2.361c7.381-3.34 25.609 2.699 25.609 2.699 22.199 7.358 27.866 5.06 31.375 11.936 2.119 4.136 2.962 10.698-.037 14.334a7.921 7.921 0 0 1-1.205 1.117C57.05 34.93 16.752 22.497 4.46 18.611a6.096 6.096 0 0 1-3.239-2.136z" id="c5q11q48bc"/>
        <path d="m23.177 0 11.555.843a2844.994 2844.994 0 0 1 13.137 42.508c8.515 28.34 11.855 41.061 19.375 63.374 4.409 13.08 9.051 25.89 9.446 26.97a1247.303 1247.303 0 0 0 8.306 22.228 32.41 32.41 0 0 1-21.19 7.925 216.295 216.295 0 0 1-19.712-41.293 220.152 220.152 0 0 1-5.49-18.083 2091.01 2091.01 0 0 1-12.33-24.931c-8.556-17.594-12.897-26.568-16.22-35.255A222.873 222.873 0 0 1 0 9.703a45.318 45.318 0 0 0 5.087-1.158c1.218-.354 3.695-1.19 8.435-3.373A90.134 90.134 0 0 0 23.177 0z" id="iyu9r908fe"/>
        <path d="m84.237 6.342 1.35 6.32 1.548-.44L89.267 6.1A16.595 16.595 0 0 0 93.7 4.774c.307-.145.604-.294.884-.446-.425 1.678-.853 3.355-1.282 5.03l2.621 1.013a163.48 163.48 0 0 1 5.017 12.145c4.257 11.598 5.85 21.004 7.675 31.547 1.012 5.779 2.176 13.565 3.087 22.893l-15.276-1.535a245.966 245.966 0 0 1-18.016 45.055 245.818 245.818 0 0 1-22.026 34.877 115.099 115.099 0 0 1-26.021-7.378c-6.673-2.807-15.337-7.263-27.644-7.307-1.15 0-2.098.03-2.719.06 7.558-7.999 14.248-16.775 19.959-26.182 15.933-26.362 29.998-67.743 31.81-84.342.243-2.22.93-10.12 6.487-16.747a25.616 25.616 0 0 1 4.528-4.227L63.027 0a58.53 58.53 0 0 0 21.22 6.346l-.01-.004z" id="waz9pl7gqg"/>
        <path d="M.931 2.22C1.521 1.295 2.618.827 7.233.354A57.767 57.767 0 0 1 13.583 0c2.563 0 3.862.03 4.74.506 1.551.837 2.165 2.284 3.326 5.141.853 2.092 2.638 6.478 1.16 7.662-.447.29-.994.382-1.511.253a4.018 4.018 0 0 1-1.06 2.115 4.102 4.102 0 0 1-2.773 1.211 3.242 3.242 0 0 1-1.16 1.765 3.41 3.41 0 0 1-2.871.503c.009.462-.136.914-.412 1.285-.931 1.154-3.208.742-4.43.179-2.725-1.259-3.225-4.686-3.275-5.091-.675-.385-4.153-2.493-5.091-6.747a10.12 10.12 0 0 1 .25-5.192A3.06 3.06 0 0 1 .93 2.22z" id="qttvgi925i"/>
        <path d="M16.662.336C14.509-.878 11.01 1.5 9.054 2.698c-1.727 1.052-3.633 2.77-5.1 4.308a.63.63 0 0 0-.274-.081.317.317 0 0 0-.182.05C2.55 7.937 1.548 8.662.58 9.627c-.57.567-.834 1.269-.257 2.109 1.97 2.864 3.489 5.495 5.56 8.626.87 1.316 1.606 2.453 2.945 4.204 6.019 7.874 15.62 13.592 25.92 14.415.918.074 2.338-.057 3.006-.951.337-.452.371-1.07.391-1.576.105-1.228 1.144-1.245.675-2.75-1.194-3.811-1.849-3.427-6.322-7.313-1.687-1.464-8.181-7.635-3.465-13.137.49-.574.904-2.817.108-3.772-.563-.675-1.808-1.235-2.81-1.414-1.002-.178-2.048-.421-2.949.156-.54.337-.725.759-1.012 1.271-1.943-.755-6.056-2.101-6.41-4.52-.111-.722.307-1.687.314-2.048.02-.665.945-2.277.388-2.591z" id="f1feh4qdlk"/>
        <path d="M2.276 5.328C.069 6.445.11 10.675.012 12.963c-.084 2.024.293 4.564.762 6.629a.675.675 0 0 0-.219.182.374.374 0 0 0-.057.179c.273 1.322.337 2.557.587 3.9.155.79.593 1.396 1.609 1.383 3.478-.047 6.511.148 10.263.165 1.578 0 2.935.024 5.13-.118 9.889-.638 19.98-5.452 26.38-13.559.57-.725 1.251-1.98.877-3.036a2.78 2.78 0 0 0-1.093-1.2c-.965-.77-.402-1.644-1.917-2.09-3.832-1.12-3.876-.364-9.591 1.202-2.152.587-10.89 2.567-12.85-4.41-.203-.725-1.842-2.314-3.077-2.182-.874.094-2.024.816-2.736 1.555-.712.739-1.488 1.467-1.508 2.537 0 .64.23 1.012.506 1.532-1.707 1.2-5.111 3.873-7.328 2.837-.674-.307-1.224-1.184-1.528-1.394-.563-.37-1.393-2.037-1.946-1.747z" id="cgcyud3gtm"/>
        <path d="M52.522 15.036c1.727 2.699 1.127 7.152-1.687 8.464-1.73.807-3.94.358-5.681-.985a11.072 11.072 0 0 1-5.277 1.35 11.43 11.43 0 0 1-7.337-2.834 10.667 10.667 0 0 1-3.65 2.378c-2.079.791-4.349.93-6.508.398a26.203 26.203 0 0 1-4.312 11.05 25.201 25.201 0 0 1-2.756 3.326c-.101 4.648-.205 9.3-.31 13.953a10.12 10.12 0 0 1-5.634-1.748c-4.386-3.053-4.386-8.596-4.363-9.125a22.711 22.711 0 0 1-4.605-9.919C-.792 24.951.48 15.97 6.832 11.227a15.63 15.63 0 0 1 5.689-2.655c.28-.702 2.594-6.258 8.673-8.046C25.917-.867 31.14.56 34.71 4.196c.634-.162 4.794-1.164 8.674 1.485 2.234 1.558 3.8 3.9 4.385 6.562.456.06 3.26.445 4.754 2.793z" id="23258vul8o"/>
        <path d="M1.094 42.436C.926 40.75-.535 25.855.211 19.266a7.587 7.587 0 0 1 1.228-3.607c.883-1.275 2.095-2.024 6.156-3.64a107.14 107.14 0 0 1 6.616-2.361A29.084 29.084 0 0 1 20.878 2.1c1.325-1.056 1.99-1.586 2.81-1.852 3.434-1.124 6.801 1.609 14.574 7.21a585.064 585.064 0 0 0 9.743 6.868 110.497 110.497 0 0 0-46.894 28.11h-.017z" id="kvrj7ar7eq"/>
        <path id="s1en9h3s0s" d="M13.154 10.543 0 8.856v-7.17L13.154 0z"/>
        <path id="l6ix5vb72v" d="M13.15 10.543 0 8.856v-7.17L13.15 0z"/>
        <linearGradient x1="50%" y1="-52.765%" x2="50%" y2="92.146%" id="p0kdi25ymu">
            <stop stop-color="#E1E1E1" offset="0%"/>
            <stop stop-color="#403E3F" offset="100%"/>
        </linearGradient>
        <linearGradient x1="50%" y1="-52.139%" x2="50%" y2="92.773%" id="y3qf9tzxvx">
            <stop stop-color="#E1E1E1" offset="0%"/>
            <stop stop-color="#403E3F" offset="100%"/>
        </linearGradient>
    </defs>
    <g transform="translate(34.432 5.64)" fill="none" fill-rule="evenodd">
        <path d="M146.153 223.763c-1.249 4.595-6.748 6.92-10.5 8.252-23.406 8.282-52.345 4.942-52.345 4.942-5.077-.583-9.986-1.167-16.5-2.817-6.825-1.73-18.11-4.702-29.958-13.002a78.943 78.943 0 0 1-14.618-13.278 107.923 107.923 0 0 1 14.8-8.37c7.139-3.327 26.82-12.22 52.116-10.175 33.4 2.699 54.92 22.714 56.897 29.951.4 1.468.437 3.011.108 4.497z" fill="#73645C"/>
        <path d="M132.756 137.414a259.59 259.59 0 0 0 2.783 18.218s9.936 52.261 11.113 62.227a14.17 14.17 0 0 1-.401 5.627c-.184.638-.417 1.26-.695 1.863l-5.419 4.918c-7.347-30.563-14.706-61.128-22.077-91.695l14.696-1.158z" fill="#87766F"/>
        <path d="M189.035 158.307c-.084-.55-.756-1.08-4.723-2.084a70.418 70.418 0 0 0-4.349-.955l.53 4.915c.84.277 5.32 1.687 7.76-.462.239-.25.877-.81.782-1.414z" fill="#E8A885" fill-rule="nonzero"/>
        <g fill="#924932" fill-rule="nonzero">
            <path d="m376.57 311.667 1.622-2.699a3.374 3.374 0 0 0-.512-4.146l-36.513-36.402-4.848 10.31a5.162 5.162 0 0 0 1.78 6.474l38.47 26.463z"/>
            <path d="m376.323 313.28-1.49 3.299c-.837 1.845-3.58 1.947-4.724.155a6.855 6.855 0 0 1-.604-6.545c1.302-2.87 4.52-4.386 7.716-3.842a1.602 1.602 0 0 1 1.268 2.176l-2.166 4.756z"/>
        </g>
        <g fill="#924932" fill-rule="nonzero">
            <path d="M254.663 298.341c-2.338-2.105-1.191-6.683.546-13.603 1.286-5.124 6.218-24.776 19.753-27.94 1.06-.246 7.014-1.64 10.961 1.66 6.312 5.273 2.18 18.106 1.963 18.747-5.502 16.426-27.842 25.974-33.223 21.136zM234.63 304.974l3.711-1.266a2.74 2.74 0 0 1 3.526 3.32 7.516 7.516 0 0 1-13.428 2.24 1.636 1.636 0 0 1 .83-2.47l5.361-1.824z"/>
            <path d="m249.964 291.039 1.002.832a3.394 3.394 0 0 1 .444 4.779l-10.605 12.778a3.394 3.394 0 0 1-4.779.444l-2.378-1.974a1.606 1.606 0 0 1-.21-2.261l11.747-14.154a3.394 3.394 0 0 1 4.779-.444z"/>
            <path d="M244.69 296.189v-2.841a3.364 3.364 0 0 1 3.364-3.364h11.22a3.364 3.364 0 0 1 3.364 3.364v2.84a3.364 3.364 0 0 1-3.363 3.364h-11.221a3.364 3.364 0 0 1-3.364-3.363z"/>
        </g>
        <path d="M273.015 256.072a61.34 61.34 0 0 1-22.11-9.425c-11.066-7.605-17.274-17.341-20.613-24.227a.638.638 0 0 0-1.191.442 57.177 57.177 0 0 0 41.158 40.92c2.945 1.153 5.887-.625 6.319-2.814.391-1.876-1.046-4.21-3.563-4.896z" fill="#B16449" fill-rule="nonzero"/>
        <g fill="#B16449" fill-rule="nonzero">
            <path d="M293.413 301.765c-2.939 1.127-6.495-1.98-11.866-6.673-3.977-3.478-19.23-16.81-15.893-30.305.26-1.056 1.73-6.99 6.464-9.005 7.567-3.221 17.115 6.299 17.587 6.781 12.118 12.385 10.455 36.615 3.708 39.202zM282.305 303.515l.63-.565a3.61 3.61 0 0 1 5.098.278l14.472 16.146a1.468 1.468 0 0 1-.113 2.073l-2.226 1.995a3.61 3.61 0 0 1-5.097-.279l-13.045-14.553a3.61 3.61 0 0 1 .281-5.095z"/>
            <path d="m292.4 293.637 2.385 1.544a3.364 3.364 0 0 1 .995 4.651l-6.098 9.42a3.364 3.364 0 0 1-4.651.995l-2.385-1.544a3.364 3.364 0 0 1-.995-4.651l6.098-9.42a3.364 3.364 0 0 1 4.651-.995zM301.05 324.47h-3.623c-2.024 0-3.245-2.46-2.088-4.25a6.835 6.835 0 0 1 5.711-3.246c3.155 0 5.847 2.314 6.684 5.441a1.606 1.606 0 0 1-1.461 2.055h-5.223z"/>
        </g>
        <g transform="translate(266.672 251.354)">
            <mask id="vp406jpvob" fill="#fff">
                <use xlink:href="#my9vgv7z8a"/>
            </mask>
            <use fill="#B16449" fill-rule="nonzero" xlink:href="#my9vgv7z8a"/>
            <g mask="url(#vp406jpvob)" stroke="#924932" stroke-linecap="round" stroke-linejoin="round" stroke-width="1.687">
                <path d="M32.307 42.034a47.025 47.025 0 0 0-4.386-26.23M68.952 43.08c.445-4.79.732-7.901.836-9.045.746-8.134.979-10.833 3.12-12.766a8.272 8.272 0 0 1 4.552-1.933"/>
            </g>
        </g>
        <path d="m369.053 281.655 11.133 3.815c5.931 1.562 12.091-1.454 14.409-6.885 2.16-5.06.523-11.106-4.025-14.507l-15.15-7.945c-7.67.79-13.327 6.748-13.54 13.323-.165 4.817 2.666 9.51 7.173 12.199z" fill="#B16449" fill-rule="nonzero"/>
        <g fill="#B16449" fill-rule="nonzero">
            <path d="m332.884 321.332 3.141.26a3.394 3.394 0 0 0 3.492-2.297l15.336-45.1-11.392.22a5.168 5.168 0 0 0-5.017 4.46l-5.56 42.457z"/>
            <path d="M339.02 324.47h-3.622c-2.025 0-3.246-2.46-2.089-4.25a6.835 6.835 0 0 1 5.712-3.246c3.154 0 5.846 2.314 6.683 5.441a1.606 1.606 0 0 1-1.46 2.055h-5.223z"/>
        </g>
        <path d="M177.484 162.268a609.369 609.369 0 0 0 101.273 61.92 609.167 609.167 0 0 0 101.105 38.321" stroke="#73645C" stroke-width="2.024" stroke-linecap="round" stroke-linejoin="round"/>
        <g transform="translate(373.963 261.968)">
            <path d="M34.774 25.058c-1.35 1.05-9.638 7.223-20.063 4.942-1.413-.31-12.6-2.914-14.452-11.099C-1.668 10.383 7.529.346 15.993.01c8.897-.351 19.139 9.955 18.781 25.049z" fill="#B16449"/>
            <path d="M18.517 30.078a72.55 72.55 0 0 0 16.058 1.542c6.376-.108 14.578-.246 16.531-4.578a5.313 5.313 0 0 0 .408-2.662L29.208 12.5c-7.972-1.724-14.645 2.888-15.425 8.053-.495 3.39 1.532 7.034 4.734 9.524z" fill="#B16449" fill-rule="nonzero"/>
            <ellipse fill="#424242" fill-rule="nonzero" cx="30.115" cy="18.834" rx="1.687" ry="2.53"/>
            <path d="M7.01 39.909c2.89 6.103 10.852 7.914 15.012 8.464a2.071 2.071 0 0 0 2.361-1.983c.223-6.508.149-11.994 0-16.126-.067-2.052-.674-18.022-5.499-22.138-.59-.506-2.196-1.88-4.203-1.717a4.79 4.79 0 0 0-2.453.988c-5.161 3.789-5.82 22.108-5.853 23.2-.223 7.308.31 8.63.634 9.312z" fill="#924932" fill-rule="nonzero"/>
            <path d="m50.482 22.96.945.452a1.646 1.646 0 0 1 .904 1.835l-.23 1.073a1.012 1.012 0 0 1-1.744.435 7.28 7.28 0 0 1-.86-1.292 7.085 7.085 0 0 1-.503-1.242 1.07 1.07 0 0 1 1.488-1.261z" fill="#403E3F" fill-rule="nonzero"/>
        </g>
        <g transform="translate(100.03 78.431)">
            <mask id="yji2iieajd" fill="#fff">
                <use xlink:href="#c5q11q48bc"/>
            </mask>
            <use fill="#9B887D" fill-rule="nonzero" xlink:href="#c5q11q48bc"/>
            <path d="M23.388.845a55.834 55.834 0 0 0 11.133 16.868c10.53 10.924 22.78 14.581 28.339 15.856L27.926 46.511C23.943 30.486 19.96 14.462 15.976-1.56L23.388.845z" fill="#87766F" fill-rule="nonzero" opacity=".5" mask="url(#yji2iieajd)"/>
        </g>
        <path d="M102.106 66.753c-5.877-.937-12.482-.722-13.515-.705h-.182c-.469.02-3.02.145-3.16.931a.418.418 0 0 0 0 .145 46.913 46.913 0 0 1 1.278 8.387l19.6 3.971 7.966.874c.729-2.744 1.463-5.498 2.203-8.262.212-.091.486-.243.516-.472.159-1.323-7.901-3.782-14.706-4.869z" fill="#73645C" fill-rule="nonzero"/>
        <ellipse fill="#73645C" fill-rule="nonzero" transform="rotate(-2.63 159.833 55.657)" cx="159.833" cy="55.657" rx="8.623" ry="1.43"/>
        <ellipse fill="#272324" fill-rule="nonzero" transform="rotate(-31.21 99.605 34.48)" cx="99.605" cy="34.48" rx="36.746" ry="9.574"/>
        <path d="M156.73 62.142c1.566.187 3.144.265 4.722.232a34.128 34.128 0 0 0 3.711-.286c-.152-1.751-.405-4.292-.826-7.345-.77-5.566-1.218-8.673-2.595-12.425a37.586 37.586 0 0 0-3.326-6.828c-2.74.31-4.99.502-6.558.62-4.562.338-7.369.375-7.939 1.873a1.906 1.906 0 0 0-.098.698c0 .962.53 1.873 1.404 4.285a34.266 34.266 0 0 1 1.33 4.48c.3 1.35.674 2.699.91 4.075.072.48.277.93.59 1.3.284.306.64.538 1.036.674 1.687.62 4.244 1.14 5.115 1.532 1.13.502 2.361 2.095 2.523 7.115z" fill="#F2BB96" fill-rule="nonzero"/>
        <path d="M138.275 43.438c-.05.064-.675.833-.533 1.6.267 1.588 3.33.758 5.759 2.995.268.252.508.532.719.833.308.467.582.955.82 1.461.277.478.585.937.92 1.377 1.158 1.538 4.973 2.847 5.911 1.626.641-.834-.135-2.676-.587-3.755a10.026 10.026 0 0 0-2.736-3.762c-3.178-2.746-8.515-4.527-10.273-2.375z" fill="#F2BB96" fill-rule="nonzero"/>
        <path d="M146.186 39.434c-.816 1.066-2.452.054-6.072.384-3.036.277-4.467 1.228-5.398.338a2.024 2.024 0 0 1-.466-1.998c.59-1.801 4.032-1.983 7.638-2.172 2.939-.155 3.688.23 4.106.755.594.719.75 1.97.192 2.693z" fill="#F1BB94" fill-rule="nonzero"/>
        <path d="M142.65 34.822c-.337.307-.873.793-1.507 1.407-2.024 1.97-2.618 2.83-3.556 2.77a1.44 1.44 0 0 1-1.221-.746c-.22-.496-.024-1.167.499-1.687" stroke="#E8A885" stroke-width="1.349"/>
        <path d="M147.67 30.389c-.12 1.43-2.222 1.764-5.346 4.558-2.628 2.361-3.374 4.122-4.75 4.048a1.818 1.818 0 0 1-1.61-1.285c-.526-1.866 2.53-4.427 5.735-7.109 2.608-2.186 3.526-2.402 4.22-2.27.962.185 1.846 1.083 1.752 2.058z" fill="#F1BB94" fill-rule="nonzero"/>
        <path d="M147.064 34.805c-.054.223-.803 3.148-2.797 3.593-.484.134-1 .083-1.447-.142-.793-.459-.938-1.504-1.013-2.004-.408-2.891 3.688-7 4.177-7.48" stroke="#E8A885" stroke-width="1.349"/>
        <path d="m151.57 31.394 2.889 6.69c.87-.084 2.51-.185 2.655.28a.145.145 0 0 1 0 .081c-.078.422-1.974.317-3.948.368 0 0-2 .05-4.412.37-1.53.206-3.041.528-4.52.966l-.7-1.191c.303-.1.586-.25.837-.445 0 0 .085-.068.203-.183.147-.148.283-.309.405-.479.192-.276.543-1.663.543-3.6l6.049-2.857z" fill="#E8A885" fill-rule="nonzero"/>
        <path d="M150.744 27.248c.449.783-1.896 2.588-3.205 4.571-2.236 3.397-1.889 6.41-3.43 6.66a1.9 1.9 0 0 1-1.576-.675c-1.812-2.065 1.403-7.132 2.486-8.836 0 0 1.754-3.07 3.404-3.252.353-.046.712.008 1.036.155.286.194.536.436.739.716.195.209.378.43.546.66z" fill="#F1BB94" fill-rule="nonzero"/>
        <path d="M151.746 31.775a17.05 17.05 0 0 1-.6.797c-1.184 1.477-2.153 2.698-3.165 2.644a1.859 1.859 0 0 1-1.467-1.035c-.942-1.873 1.498-5.277 3.819-7.085l.178-.135" stroke="#E8A885" stroke-width="1.333"/>
        <path d="m159.293 37.21-4.834.874c-.45-1.003-.924-2.015-1.42-3.036-.433-.9-.867-1.787-1.303-2.662-.492.62-1.626 1.947-2.952 2.584a1.6 1.6 0 0 1-1.042.19c-.712-.153-1.087-.905-1.164-1.064-.837-1.686.992-4.473 2.77-6.035.782-.675 1.174-1.032 1.686-1.134 2.298-.468 5.55 3.823 8.259 10.283z" fill="#F1BB94" fill-rule="nonzero"/>
        <path d="M158.17 280.464a84.277 84.277 0 0 0 11.95 22.644c-.156.388-1.755 4.173-5.8 5.131a8.37 8.37 0 0 1-5.644-.725 50.288 50.288 0 0 0-9.902-21.797l9.396-5.253zM40.19 276.736a84.233 84.233 0 0 0-16.396 19.665c-.422 0-4.528-.034-6.953-3.414a8.36 8.36 0 0 1-1.475-5.492 50.625 50.625 0 0 0 11.073-9.784 50.163 50.163 0 0 0 5.317-7.661l8.434 6.686z" fill="#9B887D"/>
        <g transform="translate(85.697 140.113)">
            <mask id="my8owiugrf" fill="#fff">
                <use xlink:href="#iyu9r908fe"/>
            </mask>
            <use fill="#403E3F" xlink:href="#iyu9r908fe"/>
            <path d="M34.776 101.463 22.57 25.38C6.889 30.157-5.094 41.958-7.24 55.665c-3.093 19.77 14.369 42.89 42.016 45.798z" fill="#272324" opacity=".7" mask="url(#my8owiugrf)"/>
        </g>
        <path d="m112.247 147.704 6.222 3.475a470.533 470.533 0 0 0-13.708 45.838c-.975 4.011-5.397 16.386-14.274 41.128a29.152 29.152 0 0 1-6.835 11.09 26.314 26.314 0 0 1-3.373 2.836c-.338.237-8.772 7.335-25.71 21.531a966.066 966.066 0 0 0-25.06 21.78 51.118 51.118 0 0 1-13.748-17.06 438.443 438.443 0 0 1 45.224-48.99c1.9-7.489 3.13-13.656 3.896-17.829 2.581-14.129 2.925-22.478 6.593-40.008.57-2.722.853-4.085 1.197-5.398a74.828 74.828 0 0 1 12.945-26.345 89.74 89.74 0 0 0 26.652 7.966l-.02-.014z" fill="#403E3F"/>
        <path d="M111.91 56.724a127.038 127.038 0 0 0-3.856 24.398 25.606 25.606 0 0 1-6.143-.314c-7.213-1.258-12.085-5.337-14.355-7.554.175-4.136.311-8.354.408-12.654.097-4.3.142-8.541.135-12.722a14.082 14.082 0 0 1 23.811 8.846z" fill="#E8A885"/>
        <g transform="translate(22.232 67.131)">
            <mask id="7w4e0abmch" fill="#fff">
                <use xlink:href="#waz9pl7gqg"/>
            </mask>
            <use fill="#9B887D" xlink:href="#waz9pl7gqg"/>
            <g mask="url(#7w4e0abmch)">
                <g transform="translate(49.694 7.28)">
                    <path d="M44.566 67.19s-1.39-.908-2.638-1.738C38.449 63.148 21.855 44 0 17.21l.132 4.386a160.613 160.613 0 0 0 15.394 29.384c5.438 8.171 10.778 13.964 14.695 18.302a209.166 209.166 0 0 0 17.681 17.412c1.163-5.04 2.328-10.08 3.496-15.121a469.006 469.006 0 0 1-6.832-4.382z" fill="#87766F"/>
                    <ellipse fill="#73645C" fill-rule="nonzero" transform="rotate(-17.79 35.645 16.832)" cx="35.645" cy="16.832" rx="2.54" ry="3.468"/>
                    <ellipse fill="#73645C" fill-rule="nonzero" transform="rotate(-12.63 42.086 36.816)" cx="42.086" cy="36.816" rx="2.54" ry="3.468"/>
                    <ellipse fill="#73645C" fill-rule="nonzero" transform="rotate(-77.95 35.135 80.88)" cx="35.135" cy="80.879" rx="3.468" ry="2.54"/>
                    <path d="M46.556 69.146c2.436-10.154 2.328-18.248 1.829-23.595-1.14-12.26-5.462-23.723-11.808-40.396-.24-.627.026-1.135.18-1.135" stroke="#87766F" stroke-width="1.349"/>
                    <path d="M11.36 0A39.313 39.313 0 0 0 22.71 4.922c4.116 1.046 9.598 2.443 15.769.314A21.662 21.662 0 0 0 46.24.479" stroke="#87766F" stroke-width="1.349"/>
                </g>
            </g>
        </g>
        <path d="M118.566 37.187c0 .162.129 1.434-.52 1.754a1.387 1.387 0 0 1-1.011-.064 1.734 1.734 0 0 1-.807-.51 1.785 1.785 0 0 1-.39-1.157c-.025-.971.616-2.213 1.349-2.22.732-.006 1.37.979 1.38 2.197z" fill="#6F373C"/>
        <path d="M151.2 56.045c-1.832 17.604-3.013 30.755-3.401 35.886a15.181 15.181 0 0 0 .547 5.671c1.012 3.465 3.127 5.664 4.493 7.064 2.335 2.396 5.459 5.968 8.434 5.22a3.65 3.65 0 0 0 1.407-.712c6.548-5.098 6.093-38.646 6.093-38.646a840.01 840.01 0 0 0-.337-15.09 68.175 68.175 0 0 1-10.263.898 68.249 68.249 0 0 1-6.973-.29z" fill="#9B887D" fill-rule="nonzero"/>
        <ellipse fill="#73645C" fill-rule="nonzero" transform="rotate(-63.83 161.444 157.148)" cx="161.444" cy="157.148" rx="9.423" ry="2.102"/>
        <path d="M74.183 100.969c.182-1.862 2.19-20.71 10.1-22.138 1.815-.337 3.374.354 4.386.88 8.829 4.525 13.447 13.893 21.224 24.932 5.87 8.33 10.795 17.313 16.787 25.552.607.833 2.304 3.144 2.132 6.116-.23 3.961-3.751 7.969-7.564 9.048-5.735 1.623-11.52-3.576-20.45-11.608-1.92-1.724-7.703-7.044-15.418-16.869a185.213 185.213 0 0 1-11.197-15.913z" stroke="#87766F" stroke-width="1.349" fill="#9B887D" fill-rule="nonzero"/>
        <path d="M129.48 137.748c2.2-.337 3.89.733 6.93 2.588 2.864 1.748 5.715 3.515 8.626 5.179a226.969 226.969 0 0 0 21.237 10.68c.159 0 2.382.237 3.235 2.025.409.84.444 1.812.098 2.678-.816 1.815-4.082 2.666-8.036 1.758l-33.399-16.173c-2.3-1.043-3.56-3.266-3.178-5.206.442-2.287 2.982-3.3 4.487-3.529z" fill="#F4BC99"/>
        <g transform="translate(160.197 151.668)">
            <mask id="kn21yohegj" fill="#fff">
                <use xlink:href="#qttvgi925i"/>
            </mask>
            <use fill="#F4BC99" xlink:href="#qttvgi925i"/>
            <g mask="url(#kn21yohegj)" stroke="#E8A885" stroke-linecap="round" stroke-linejoin="round" stroke-width=".904">
                <path d="M21.77 13.565a29.654 29.654 0 0 0-3.492-9.108M17.877 16.595a29.57 29.57 0 0 0-3.492-9.109M14.146 20.16a29.64 29.64 0 0 0-3.492-9.122M9.284 18.255a29.661 29.661 0 0 0-8.906-4.011"/>
            </g>
        </g>
        <path d="M165.666 148.527a32.218 32.218 0 0 0-6.228 9.447 31.817 31.817 0 0 0-2.21 7.614c-1.012-.338-2.5-.84-4.284-1.498-7.45-2.743-13.022-5.546-26.571-13.259-13.404-7.63-15.954-9.446-16.787-13.076-.61-2.658-.24-6.022 1.71-8.18 3.6-3.985 12.466-3.749 21.153 2.273a290.647 290.647 0 0 0 27.06 13.994c2.065.926 4.117 1.822 6.157 2.685z" fill="#9B887D"/>
        <g transform="translate(0 285.705)">
            <mask id="dujvv9ubkl" fill="#fff">
                <use xlink:href="#f1feh4qdlk"/>
            </mask>
            <use fill="#606060" fill-rule="nonzero" xlink:href="#f1feh4qdlk"/>
            <g mask="url(#dujvv9ubkl)" fill="#464646" fill-rule="nonzero">
                <path d="M40.75 36.586c-1.552-.233-1.903.027-3.607-.307-8.936-1.768-16.466-4.123-22.866-12.145-3.11-3.897-7.588-13.11-10.796-17.88-1.96 1.23-3.762 2.698-5.735 3.984 4.639 7.084 8.036 15.205 14.621 20.761 6.97 5.877 15.769 7.979 24.398 10.216 1.34-1.562 2.612-3.108 3.985-4.63zM21.159 8.935c1.11.567 2.557 1.056 3.627 1.519 1.07.462 1.747.512 2.661 1.271.915.76 1.205 2.166 1.147 3.35 2.585-2.388 3.62-6.639.304-8.771-2.982-1.93-5.904.482-7.74 2.631z"/>
            </g>
        </g>
        <path d="M27.862 305.598c-.294.24-.6.466-.917.674-.683.47-1.43.84-2.217 1.1M29.074 308.59c-.338.314-.645.655-.982.945-.546.458-1.123.877-1.728 1.255M31.28 311.07c-.26.364-.53.701-.82 1.049-.189.23-.408.462-.61.675M27.815 301.968c-.337.148-.722.303-1.049.445-.87.386-1.773.69-2.699.907" stroke="#464646" stroke-width="1.879" stroke-linecap="round" stroke-linejoin="round"/>
        <g transform="translate(154.841 299.237)">
            <mask id="xs3sko8j9n" fill="#fff">
                <use xlink:href="#cgcyud3gtm"/>
            </mask>
            <use fill="#606060" fill-rule="nonzero" xlink:href="#cgcyud3gtm"/>
            <g mask="url(#xs3sko8j9n)" fill="#464646" fill-rule="nonzero">
                <path d="M45.796 5.399c-1.056 1.16-1.036 1.599-2.26 2.83-6.43 6.45-12.57 11.41-22.79 12.284-4.966.425-15.117-.965-20.883-.935-.064 2.315.162 4.629.132 6.984 8.471.074 17.111 1.754 25.387-.641 8.754-2.537 15.387-8.687 22.036-14.628-.553-1.98-1.14-3.87-1.622-5.894zM11.9 6.37c1.09-.607 2.298-1.541 3.276-2.176.979-.634 1.397-1.167 2.534-1.504 1.137-.338 2.473.199 3.424.904C20.584.119 17.622-3.103 14-1.534c-3.245 1.407-2.874 5.162-2.098 7.904z"/>
            </g>
        </g>
        <path d="M179.586 306.1c.039.38.058.762.057 1.144a8.664 8.664 0 0 1-.314 2.453M182.757 306.755c.084.442.189.9.243 1.35.077.707.105 1.42.084 2.131M186.03 306.303c.158.421.29.833.418 1.265.084.287.155.597.229.887M176.54 304.123c-.062.361-.146.773-.21 1.124a15.4 15.4 0 0 1-.749 2.756" stroke="#464646" stroke-width="1.879" stroke-linecap="round" stroke-linejoin="round"/>
        <g fill="#333B40" fill-rule="nonzero">
            <path d="M117.156 40.867s1.906-.65 2.105 1.201c.2 1.853-.516 2.433-1.083 2.615a2.223 2.223 0 0 1-2.044-.735c-.35-.54.04-2.986 1.022-3.08zM107.049 43.492s.3-1.893-1.87-1.812c-2.169.081-1.47 2.655-1.47 2.655s-.091 1.32 2.159 1.083c1.154-.121 1.18-1.926 1.18-1.926z"/>
        </g>
        <path d="M113.681 50.476a15.14 15.14 0 0 1 1.94-.55c.719-.125.634.614.307 1.282s-1.218 1.646-2.486 1.413c-1.269-.233-2.679-.934-2.851-1.245-.172-.31.118-1.012.118-1.012a9.446 9.446 0 0 0 2.972.112zM110.46 56.48s3.258.115 4.304-.519c1.046-.634 1.485-1.012 2.17-.49.684.524-.422 1.769-.422 1.769a6.859 6.859 0 0 1-4.163 1.457c-2.517.024-5.594-.83-6.323-1.548-.728-.719-.084-1.573.74-1.552.822.02 2.627.691 3.693.884z" fill="#F2B891" fill-rule="nonzero" style="mix-blend-mode:multiply"/>
        <path d="M117.052 64.23c-.56.459-2.561 1.896-9.43.337-6.278-1.423-11.926-2.699-15.586-7.82-2.486-3.471-2.814-6.973-3.232-11.47-.493-5.256-1.036-11.029 2.007-15.944 5.348-8.63 20.242-12.118 26.652-6.319 2.875 2.588 5.06 7.911 4.656 12.32-.098 1.09-.398 2.585-.526 5.398-.139 3.054.097 3.823.074 6.073-.044 4.089-.901 7.037-2.18 11.595-.91 3.31-1.393 4.976-2.435 5.83z" fill="#F4BC99" fill-rule="nonzero"/>
        <g transform="translate(73.075 6.7)">
            <mask id="807xuryjlp" fill="#fff">
                <use xlink:href="#23258vul8o"/>
            </mask>
            <use fill="#80433D" xlink:href="#23258vul8o"/>
            <path d="M15.344 12.25C6.306 20.136 1.786 24.08-.13 30.506c-.823 2.763-2.182 9.16 1.1 17.958a63.688 63.688 0 0 1 9.406-14.658c13.093-15.252 30.174-20.188 36.28-21.868a78.389 78.389 0 0 1 4.52-1.1C49.237 8.704 41.447.59 31.74 1.636c-4.733.51-8.687 3.883-16.396 10.613z" fill="#6F373C" mask="url(#807xuryjlp)"/>
        </g>
        <ellipse fill="#F4BC99" fill-rule="nonzero" transform="rotate(-36.89 87.37 46.397)" cx="87.37" cy="46.397" rx="4.571" ry="6.167"/>
        <path d="M87.06 44.393c-.064-.054-.705-.543-1.35-.307-.644.236-.803.951-.836 1.09-.287 1.15.965 2.698 3.006 3.957" stroke="#E8A885" stroke-width="1.349" stroke-linecap="round" stroke-linejoin="round"/>
        <ellipse fill="#424242" fill-rule="nonzero" cx="107.413" cy="40.759" rx="1.687" ry="2.53"/>
        <ellipse fill="#424242" fill-rule="nonzero" cx="118.86" cy="40.422" rx="1.545" ry="2.53"/>
        <path d="M117.78 54.21s-1.595-.175-4.213.61c-2.618.787-3.438 1.35-3.438 1.35" stroke="#E9816F" stroke-width="1.012" stroke-linecap="round" stroke-linejoin="round"/>
        <path d="M117.517 48.013c-.39.277-.82.494-1.275.644a5.185 5.185 0 0 1-2.109.246c.49.496 1.451.608 2.24.297a1.761 1.761 0 0 0 1.144-1.187z" stroke="#E8A885" stroke-width="1.461" fill="#E8A885" fill-rule="nonzero" stroke-linecap="round" stroke-linejoin="round"/>
        <g transform="translate(72.1)">
            <mask id="qvknquamjr" fill="#fff">
                <use xlink:href="#kvrj7ar7eq"/>
            </mask>
            <use fill="#403E3F" fill-rule="nonzero" xlink:href="#kvrj7ar7eq"/>
            <path d="M45.428 10.525a77.874 77.874 0 0 0-48.5 29.216l2.57 8.643a88.363 88.363 0 0 1 52.714-31.287l-6.784-6.572z" fill="#545152" fill-rule="nonzero" mask="url(#qvknquamjr)"/>
        </g>
        <g fill="#403E3F" fill-rule="nonzero">
            <path d="M130.958 15.177c-2.935-4.841-19.432-.213-36.847 10.337C76.696 36.064 64.76 48.67 67.887 53.39c.726 1.093 1.566 1.245 1.984 1.518a2.85 2.85 0 0 1-.6-.674c-2.797-4.615 9.007-16.885 26.365-27.401 17.357-10.516 32.761-15.434 35.558-10.82.037.05.07.1.101.152a3.185 3.185 0 0 0-.337-.988zM102.299 44.48h-.038.038z"/>
        </g>
        <g fill="#80433D" fill-rule="nonzero">
            <path d="M121.485 32.484c.462.28 1.589.985.927 1.74-.66.756-1.248 0-1.626-.188-.782-.368-2.466-.058-3.414.435-.752.388-1.687-.216-1.012-1.113.837-1.137 3.539-1.839 5.125-.874zM111.35 34.13c.115-.627-.449-1.211-2.324-1.511-1.876-.3-4.98-.314-7.004 1.35-2.024 1.662-1.761 2.604-.675 2.644 1.087.04 1.832-1.35 3.63-1.808 1.798-.459 4.599.337 5.27.307.54-.057.983-.452 1.103-.982z"/>
        </g>
        <g transform="translate(116.279 32.295)">
            <ellipse fill="#403E3F" fill-rule="nonzero" cx="1.994" cy="7.952" rx="1.994" ry="3.596"/>
            <g transform="translate(1.88 2.669)">
                <mask id="xju21lkrxt" fill="#fff">
                    <use xlink:href="#s1en9h3s0s"/>
                </mask>
                <use fill="#403E3F" xlink:href="#s1en9h3s0s"/>
                <g mask="url(#xju21lkrxt)">
                    <path d="M5.897 10.455c-1.903 0-3.461-2.362-3.461-5.185 0-2.824 1.558-5.152 3.461-5.186" fill="#272324"/>
                    <path d="M6.91 10.455c-1.904 0-3.462-2.362-3.462-5.185C3.448 2.446 4.996.11 6.892.084" fill="#403E3F"/>
                    <path d="M14.071 12.58c-2.429-.023-4.419-3.333-4.419-7.344s1.98-7.307 4.386-7.348" fill="#272324"/>
                </g>
            </g>
            <path d="M5.637 3.9c.47-.594 1.14-.867 1.687-.692.212.074.399.204.54.378M5.637 11.97c.47.593 1.14.867 1.687.691.212-.073.399-.204.54-.378" fill="#272324"/>
            <ellipse fill="#403E3F" fill-rule="nonzero" cx="17.044" cy="7.689" rx="4.254" ry="7.678"/>
            <path fill="#403E3F" fill-rule="nonzero" d="M16.899 0h3.62v15.374h-3.62z"/>
            <ellipse fill="#545152" fill-rule="nonzero" cx="20.144" cy="7.689" rx="4.254" ry="7.678"/>
            <ellipse fill="#272324" fill-rule="nonzero" cx="20.269" cy="7.533" rx="2.196" ry="4.811"/>
            <ellipse fill="url(#p0kdi25ymu)" fill-rule="nonzero" cx="19.587" cy="7.533" rx="1.515" ry="4.575"/>
        </g>
        <g transform="translate(106.67 32.727)">
            <ellipse fill="#403E3F" fill-rule="nonzero" cx="1.994" cy="7.948" rx="1.994" ry="3.596"/>
            <g transform="translate(1.88 2.669)">
                <mask id="5nlymucp7w" fill="#fff">
                    <use xlink:href="#l6ix5vb72v"/>
                </mask>
                <use fill="#403E3F" xlink:href="#l6ix5vb72v"/>
                <g mask="url(#5nlymucp7w)">
                    <path d="M5.904 10.455c-1.903 0-3.461-2.362-3.461-5.189S3.99.111 5.887.081" fill="#272324"/>
                    <path d="M6.892 10.455c-1.902 0-3.461-2.362-3.461-5.189S4.983.111 6.879.081" fill="#403E3F"/>
                    <path d="M14.071 12.58c-2.429-.023-4.419-3.333-4.419-7.347 0-4.015 1.977-7.308 4.386-7.345" fill="#272324"/>
                </g>
            </g>
            <path d="M5.634 3.9c.469-.597 1.144-.87 1.687-.692.213.07.4.202.54.378M5.634 11.966c.469.597 1.144.87 1.687.675.212-.072.4-.203.54-.378" fill="#272324"/>
            <ellipse fill="#403E3F" fill-rule="nonzero" cx="17.044" cy="7.685" rx="4.254" ry="7.678"/>
            <path fill="#403E3F" fill-rule="nonzero" d="M16.895 0h3.62v15.374h-3.62z"/>
            <ellipse fill="#545152" fill-rule="nonzero" cx="20.141" cy="7.685" rx="4.254" ry="7.678"/>
            <ellipse fill="#272324" fill-rule="nonzero" cx="20.269" cy="7.53" rx="2.196" ry="4.811"/>
            <ellipse fill="url(#y3qf9tzxvx)" fill-rule="nonzero" cx="19.587" cy="7.53" rx="1.515" ry="4.575"/>
        </g>
        <path d="M173.672 151.223a20.58 20.58 0 0 0-4.177 3.596c-3.863 4.359-4.865 9.274-5.179 11.68M171.624 151.33a14.993 14.993 0 0 0-2.962 1.586c-5.06 3.496-6.569 9.173-7.028 11.417" stroke="#73645C" stroke-width="2.024" stroke-linecap="round" stroke-linejoin="round"/>
        <path d="M376.502 285.1c-.26-2.588-.867-11.852 5.398-19.089a21.649 21.649 0 0 1 5.06-4.27l-4.659-2.767a.864.864 0 0 0-.9 0 23.521 23.521 0 0 0-7.76 8.073c-4.524 7.87-2.827 15.822-2.361 17.78l5.222.272z" stroke="#403E3F" stroke-width="1.349" fill="#403E3F" fill-rule="nonzero" stroke-linecap="round" stroke-linejoin="round"/>
        <path d="M146.456 43.394a7.017 7.017 0 0 1 5.803 3.914" stroke="#E8A885" stroke-width="1.012" stroke-linecap="round" stroke-linejoin="round"/>
    </g>
</svg>
