<svg xmlns="http://www.w3.org/2000/svg" width="2272" height="612" viewBox="0 0 2272 612"><defs><linearGradient id="a" x1="100%" x2="10.095%" y1="49.487%" y2="50.386%"><stop offset="0%" stop-color="#FF884D"/><stop offset="100%" stop-color="#FF4D88"/></linearGradient><linearGradient id="b" x1="96.573%" x2="19.294%" y1="47.129%" y2="51.803%"><stop offset="0%" stop-color="#A466FD"/><stop offset="100%" stop-color="#A179F2"/></linearGradient><linearGradient id="c" x1="100%" x2="13.451%" y1="49.733%" y2="50.368%"><stop offset="0%" stop-color="#FFCA50"/><stop offset="100%" stop-color="#FFAE00"/><stop offset="100%" stop-color="#FA0"/></linearGradient><linearGradient id="d" x1="96.725%" x2="9.29%" y1="47.194%" y2="52.439%"><stop offset="0%" stop-color="#FFEC4E"/><stop offset="100%" stop-color="#FFD426"/></linearGradient><linearGradient id="e" x1="100%" x2="7.79%" y1="49.356%" y2="50.279%"><stop offset="0%" stop-color="#00D0F0"/><stop offset="100%" stop-color="#0AF"/></linearGradient><linearGradient id="f" x1="92.816%" x2="7.2%" y1="46.569%" y2="52.273%"><stop offset="0%" stop-color="#8A73FF"/><stop offset="100%" stop-color="#4070FF"/></linearGradient><linearGradient id="g" x1="96.271%" x2="11.011%" y1="49.677%" y2="50.323%"><stop offset="0%" stop-color="#56EEEE"/><stop offset="100%" stop-color="#2BD9D9"/></linearGradient><linearGradient id="h" x1="92.761%" x2="3.849%" y1="47.376%" y2="52.624%"><stop offset="0%" stop-color="#3FEF98"/><stop offset="100%" stop-color="#3DCC6D"/></linearGradient></defs><g fill="none" fill-rule="evenodd" stroke-linecap="round" stroke-linejoin="round" stroke-width="32" transform="translate(16.785 16)"><g transform="translate(1146.215)"><path stroke="url(#a)" d="M0,278 C207.372328,278 437.160855,182 694,182 C865.226097,182 998.125836,182 1092.69922,182"/><path stroke="url(#b)" d="M0,250 C207.372328,250 437.160855,0 694,0 C865.226097,0 998.125836,0 1092.69922,0"/><path stroke="url(#c)" d="M0,390 C207.372328,390 485.160855,302 694,302 C833.226097,302 966.125836,302 1092.69922,302" transform="matrix(1 0 0 -1 0 692)"/><path stroke="url(#d)" d="M0,579 C207.372328,579 437.160855,330 694,330 C865.226097,330 998.125836,330 1092.69922,330" transform="matrix(1 0 0 -1 0 909)"/></g><g transform="matrix(-1 0 0 1 1089.215 0)"><path stroke="url(#e)" d="M0,278.5 C208.111361,278.5 431.084364,183 689,183 C860.943757,183 994.348705,183 1089.21484,183"/><path stroke="url(#f)" d="M0,250.5 C208.111361,250.5 431.084364,0 689,0 C860.943757,0 994.348705,0 1089.21484,0"/><path stroke="url(#g)" d="M0,390.5 C208.111361,390.5 431.084364,303 689,303 C860.943757,303 994.348705,303 1089.21484,303" transform="matrix(1 0 0 -1 0 693.5)"/><path stroke="url(#h)" d="M0,580 C208.111361,580 433,330.5 689,330.5 C859.666667,330.5 993.071615,330.5 1089.21484,330.5" transform="matrix(1 0 0 -1 0 910.5)"/></g></g></svg>