<svg xmlns="http://www.w3.org/2000/svg" width="1004" height="353" viewBox="0 0 1004 353">
  <defs>
    <linearGradient id="integrations-a" x1=".245%" x2="100%" y1=".245%" y2="100%">
      <stop offset="0%" stop-color="#B366FF"/>
      <stop offset="100%" stop-color="#4965F2"/>
    </linearGradient>
  </defs>
  <g fill="none" fill-rule="evenodd" transform="translate(1)">
    <g stroke="#8A9499" stroke-linecap="round" stroke-linejoin="round" stroke-width="12" opacity=".2" transform="translate(40 75)">
      <path d="M450 0L450 24.5C450 46.59139 432.09139 64.5 410 64.5L339 64.5C316.90861 64.5 299 82.40861 299 104.5L299 129 299 129M450 9.09494702e-13L450 24.5C450 46.59139 467.90861 64.5 490 64.5L559.5 64.5C581.59139 64.5 599.5 82.40861 599.5 104.5L599.5 129 599.5 129"/>
      <path d="M450 0L450 24.5C450 46.59139 432.09139 64.5 410 64.5L40 64.5C17.90861 64.5-2.705415e-15 82.40861 0 104.5L0 129 0 129M450 0L450 24.5C450 46.59139 467.90861 64.5 490 64.5L859 64.5C881.09139 64.5 899 82.40861 899 104.5L899 129 899 129"/>
    </g>
    <g transform="translate(440)">
      <circle cx="50.5" cy="50.5" r="34.5" fill="url(#integrations-a)"/>
      <circle cx="50.5" cy="50.5" r="50.5" fill="url(#integrations-a)"/>
      <path fill="#FFF" d="M18,4.5 C19.2426407,4.5 20.25,5.5091545 20.25,6.75556491 L20.25,15.75 L29.2444351,15.75 C30.4382444,15.75 31.4154363,16.667205 31.4947963,17.8449566 L31.5,18 C31.5,19.2426407 30.4908455,20.25 29.2444351,20.25 L20.25,20.25 L20.25,29.2444351 C20.25,30.4382444 19.332795,31.4154363 18.1550434,31.4947963 L18,31.5 C16.7573593,31.5 15.75,30.4908455 15.75,29.2444351 L15.75,20.25 L6.75556491,20.25 C5.50985081,20.25 4.5,19.2513041 4.5,18 C4.5,16.7573593 5.5091545,15.75 6.75556491,15.75 L15.75,15.75 L15.75,6.75556491 C15.75,5.56175556 16.667205,4.58456372 17.8449566,4.50520365 L18,4.5 Z" transform="translate(32.5 32.5)"/>
    </g>
    <g transform="translate(0 234)">
      <text fill="#8A9499" font-family="Avenir-Medium, Avenir" font-size="21" font-weight="400">
        <tspan x=".106" y="109">YouTube</tspan>
      </text>
      <g transform="translate(4)">
        <path fill="#D01F2E" d="M70.4952216,17.4315667 C69.6672676,14.1130423 67.2278553,11.4987359 64.1299914,10.611637 C58.5150759,9 35.9997037,9 35.9997037,9 C35.9997037,9 13.4849241,9 7.87000864,10.611637 C4.77214471,11.4987359 2.33273244,14.1130423 1.50477837,17.4315667 C0,23.4482179 0,35.9996825 0,35.9996825 C0,35.9996825 0,48.5517821 1.50477837,54.5677983 C2.33273244,57.8863227 4.77214471,60.5012641 7.87000864,61.387728 C13.4849241,63 35.9997037,63 35.9997037,63 C35.9997037,63 58.5150759,63 64.1299914,61.387728 C67.2278553,60.5012641 69.6672676,57.8863227 70.4952216,54.5677983 C72,48.5517821 72,35.9996825 72,35.9996825 C72,35.9996825 72,23.4482179 70.4952216,17.4315667"/>
        <polygon fill="#FFFFFE" points="51 36 27 22.5 27 49.5"/>
      </g>
    </g>
    <g transform="translate(875 234)">
      <text fill="#8A9499" font-family="Avenir-Medium, Avenir" font-size="21" font-weight="400">
        <tspan x=".391" y="109">Google Drive</tspan>
      </text>
      <g fill-rule="nonzero" transform="translate(29 3)">
        <path fill="#0066DA" d="M5.44329897,55.1340206 L8.6185567,60.6185567 C9.27835052,61.7731959 10.2268041,62.6804124 11.3402062,63.3402062 L22.6804124,43.7113402 L0,43.7113402 C0,44.9896907 0.329896907,46.2680412 0.989690722,47.4226804 L5.44329897,55.1340206 Z"/>
        <path fill="#00AC47" d="M36,20.6185567 L24.6597938,0.989690722 C23.5463918,1.64948454 22.5979381,2.55670103 21.9381443,3.71134021 L0.989690722,40 C0.34203134,41.1297386 0.000862319947,42.4091224 0,43.7113402 L22.6804124,43.7113402 L36,20.6185567 Z"/>
        <path fill="#EA4335" d="M60.6597938,63.3402062 C61.7731959,62.6804124 62.7216495,61.7731959 63.3814433,60.6185567 L64.7010309,58.3505155 L71.0103093,47.4226804 C71.6701031,46.2680412 72,44.9896907 72,43.7113402 L49.3179381,43.7113402 L54.1443299,53.1958763 L60.6597938,63.3402062 Z"/>
        <path fill="#00832D" d="M36,20.6185567 L47.3402062,0.989690722 C46.2268041,0.329896907 44.9484536,0 43.628866,0 L28.371134,0 C27.0515464,0 25.7731959,0.371134021 24.6597938,0.989690722 L36,20.6185567 Z"/>
        <path fill="#2684FC" d="M49.3195876,43.7113402 L22.6804124,43.7113402 L11.3402062,63.3402062 C12.4536082,64 13.7319588,64.3298969 15.0515464,64.3298969 L56.9484536,64.3298969 C58.2680412,64.3298969 59.5463918,63.9587629 60.6597938,63.3402062 L49.3195876,43.7113402 Z"/>
        <path fill="#FFBA00" d="M60.5360825,21.8556701 L50.0618557,3.71134021 C49.4020619,2.55670103 48.4536082,1.64948454 47.3402062,0.989690722 L36,20.6185567 L49.3195876,43.7113402 L71.9587629,43.7113402 C71.9587629,42.4329897 71.628866,41.1546392 70.9690722,40 L60.5360825,21.8556701 Z"/>
      </g>
    </g>
    <g transform="translate(282 234)">
      <text fill="#8A9499" font-family="Avenir-Medium, Avenir" font-size="21" font-weight="400">
        <tspan x=".436" y="109">MeisterTask</tspan>
      </text>
      <g transform="translate(22)">
        <path fill="#0AF" d="M44.995186,2.37279326 C71.0914922,9.37709091 75.7313448,21.9789187 69.570491,45.0103829 C63.4096372,68.0418471 53.1011203,76.6315044 27.004814,69.6272067 C0.908507811,62.6229091 -3.7313448,50.0210813 2.42950898,26.9896171 C8.59036276,3.95815287 18.8988797,-4.63150438 44.995186,2.37279326 Z"/>
        <path fill="#FFF" d="M29.3818104,35.1670736 L29.3818104,2.32630511 C29.3818104,0.617674161 30.7669295,-0.767444895 32.4755604,-0.767444895 C34.1841914,-0.767444895 35.5693104,0.617674161 35.5693104,2.32630511 L35.5693104,38.2608236 C35.5693104,39.9694545 34.1841914,41.3545736 32.4755604,41.3545736 L18.0115682,41.3545736 C16.3029373,41.3545736 14.9178182,39.9694545 14.9178182,38.2608236 C14.9178182,36.5521926 16.3029373,35.1670736 18.0115682,35.1670736 L29.3818104,35.1670736 Z" transform="rotate(45 17.289 39.499)"/>
      </g>
    </g>
    <g transform="translate(579 234)">
      <text fill="#8A9499" font-family="Avenir-Medium, Avenir" font-size="21" font-weight="400">
        <tspan x=".041" y="109">MeisterNote</tspan>
      </text>
      <g transform="translate(25)">
        <path fill="#FFD426" d="M44.995186,2.37279326 C71.0914922,9.37709091 75.7313448,21.9789187 69.570491,45.0103829 C63.4096372,68.0418471 53.1011203,76.6315044 27.004814,69.6272067 C0.908507811,62.6229091 -3.7313448,50.0210813 2.42950898,26.9896171 C8.59036276,3.95815287 18.8988797,-4.63150438 44.995186,2.37279326 Z"/>
        <path fill="#FFF" fill-rule="nonzero" d="M44.5729088,37.125 C45.9398136,37.125 47.0479088,38.2330952 47.0479088,39.6 C47.0479088,40.8692687 46.0924593,41.9153802 44.8615461,42.0583489 L44.5729088,42.075 L4.95,42.075 C3.58309524,42.075 2.475,40.9669048 2.475,39.6 C2.475,38.3307313 3.43044947,37.2846198 4.66136271,37.1416511 L4.95,37.125 L44.5729088,37.125 Z M44.5729088,22.275 C45.9398136,22.275 47.0479088,23.3830952 47.0479088,24.75 C47.0479088,26.0192687 46.0924593,27.0653802 44.8615461,27.2083489 L44.5729088,27.225 L4.95,27.225 C3.58309524,27.225 2.475,26.1169048 2.475,24.75 C2.475,23.4807313 3.43044947,22.4346198 4.66136271,22.2916511 L4.95,22.275 L44.5729088,22.275 Z M44.5729088,7.425 C45.9398136,7.425 47.0479088,8.53309524 47.0479088,9.9 C47.0479088,11.1692687 46.0924593,12.2153802 44.8615461,12.3583489 L44.5729088,12.375 L4.95,12.375 C3.58309524,12.375 2.475,11.2669048 2.475,9.9 C2.475,8.6307313 3.43044947,7.58461978 4.66136271,7.44165114 L4.95,7.425 L44.5729088,7.425 Z" transform="translate(11.25 11.25)"/>
      </g>
    </g>
  </g>
</svg>
