<svg xmlns="http://www.w3.org/2000/svg" width="115" height="34" viewBox="0 0 115 34">
  <g fill="none" fill-rule="evenodd" transform="translate(.16 1)">
    <polyline stroke="#4070FF" stroke-linecap="round" stroke-linejoin="round" stroke-width="8" points="57.82 3 71.54 15.891 57.82 29"/>
    <line x1="21.56" x2="69.58" y1="16" y2="16" stroke="#4070FF" stroke-linecap="round" stroke-linejoin="round" stroke-width="8" transform="matrix(1 0 0 -1 0 32)"/>
    <path fill="#FFF" d="M93.5555408-4.14336123e-16L104.404459 4.14336123e-16C107.970534-2.4074122e-16 109.263679.371302445 110.567383 1.06853082 111.871087 1.76575919 112.894241 2.78891348 113.591469 4.09261719 114.288698 5.39632089 114.66 6.68946584 114.66 10.2555408L114.66 21.7444592C114.66 25.3105342 114.288698 26.6036791 113.591469 27.9073828 112.894241 29.2110865 111.871087 30.2342408 110.567383 30.9314692 109.263679 31.6286976 107.970534 32 104.404459 32L93.5555408 32C89.9894658 32 88.6963209 31.6286976 87.3926172 30.9314692 86.0889135 30.2342408 85.0657592 29.2110865 84.3685308 27.9073828 83.6713024 26.6036791 83.3 25.3105342 83.3 21.7444592L83.3 10.2555408C83.3 6.68946584 83.6713024 5.39632089 84.3685308 4.09261719 85.0657592 2.78891348 86.0889135 1.76575919 87.3926172 1.06853082 88.6963209.371302445 89.9894658 2.4074122e-16 93.5555408-4.14336123e-16zM16 0L23.2 0C32.036556-1.623249e-15 39.2 7.163444 39.2 16 39.2 24.836556 32.036556 32 23.2 32L16 32C7.163444 32 1.082166e-15 24.836556 0 16-1.082166e-15 7.163444 7.163444 1.623249e-15 16 0z"/>
    <path fill="#8A9499" d="M15.8,10 L23.4,10 C26.7137085,10 29.4,12.6862915 29.4,16 C29.4,19.3137085 26.7137085,22 23.4,22 L15.8,22 C12.4862915,22 9.8,19.3137085 9.8,16 C9.8,12.6862915 12.4862915,10 15.8,10 Z" opacity=".3"/>
    <polyline stroke="#8A9499" stroke-linecap="round" stroke-linejoin="round" stroke-width="5" points="91.14 15.8 96.628 21.4 106.82 11"/>
  </g>
</svg>
