<svg xmlns="http://www.w3.org/2000/svg" width="79" height="72" viewBox="0 0 79 72">
  <defs>
    <linearGradient id="feature-icon-3-a" x1="1.607%" x2="98.631%" y1=".245%" y2="100%">
      <stop offset="0%" stop-color="#B366FF"/>
      <stop offset="100%" stop-color="#4965F2"/>
    </linearGradient>
  </defs>
  <g fill="none" fill-rule="evenodd" transform="translate(-65 -7)">
    <g transform="translate(65.66 7)">
      <path fill="#8A9499" d="M35.28 51L35.28 60.9689011 48.1318886 66.2145699C49.6394721 66.8299101 50.3727549 68.5758215 49.7697215 70.114172 49.1666881 71.6525226 47.455695 72.4007703 45.9481114 71.7854301L32.3392179 66.231 18.7318886 71.7854301C17.224305 72.4007703 15.5133119 71.6525226 14.9102785 70.114172 14.3072451 68.5758215 15.0405279 66.8299101 16.5481114 66.2145699L29.4 60.9689011 29.4 51 35.28 51zM29.4 3C29.4 1.34314575 30.7162828 0 32.34 0 33.9637172 0 35.28 1.34314575 35.28 3L35.28 9C35.28 10.6568542 33.9637172 12 32.34 12 30.7162828 12 29.4 10.6568542 29.4 9L29.4 3z"/>
      <path fill="#FFF" d="M10.2555408,6 L54.4244592,6 C57.9905342,6 59.2836791,6.37130244 60.5873828,7.06853082 C61.8910865,7.76575919 62.9142408,8.78891348 63.6114692,10.0926172 C64.3086976,11.3963209 64.68,12.6894658 64.68,16.2555408 L64.68,43.7444592 C64.68,47.3105342 64.3086976,48.6036791 63.6114692,49.9073828 C62.9142408,51.2110865 61.8910865,52.2342408 60.5873828,52.9314692 C59.2836791,53.6286976 57.9905342,54 54.4244592,54 L10.2555408,54 C6.68946584,54 5.39632089,53.6286976 4.09261719,52.9314692 C2.78891348,52.2342408 1.76575919,51.2110865 1.06853082,49.9073828 C0.371302445,48.6036791 1.32448231e-15,47.3105342 -2.27954675e-15,43.7444592 L2.76224082e-16,16.2555408 C-1.60494146e-16,12.6894658 0.371302445,11.3963209 1.06853082,10.0926172 C1.76575919,8.78891348 2.78891348,7.76575919 4.09261719,7.06853082 C5.39632089,6.37130244 6.68946584,6 10.2555408,6 Z"/>
      <path fill="url(#feature-icon-3-a)" d="M23.52,22.508788 C23.52,20.8470803 24.7230075,20.1099092 26.1957242,20.8565574 L41.5548662,28.6434426 C43.0326278,29.3926486 43.0275828,30.6099092 41.5548662,31.3565574 L26.1957242,39.1434426 C24.7179625,39.8926486 23.52,39.1544098 23.52,37.491212 L23.52,22.508788 Z"/>
    </g>
    <g transform="translate(114.858 42.756)">
      <ellipse cx="12.063" cy="12.152" fill="#FFD426" opacity=".4" rx="9.047" ry="9.114"/>
      <ellipse cx="12.063" cy="12.152" fill="#FFD426" opacity=".6" rx="6.031" ry="6.076"/>
      <ellipse cx="12.063" cy="12.152" fill="#FFF" rx="3.016" ry="3.038"/>
      <rect width="3.016" height="7.595" x="10.555" fill="#FFD426" rx="1.508"/>
      <rect width="3.016" height="7.595" x="10.555" y="16.709" fill="#FFD426" rx="1.508"/>
      <path fill="#FFD426" d="M24.1253727 12.1517767C24.1253727 12.9906819 23.4453058 13.6707488 22.6064006 13.6707488L18.1051658 13.6707488C17.2662607 13.6707488 16.5861938 12.9906819 16.5861938 12.1517767 16.5861938 11.3128716 17.2662607 10.6328046 18.1051658 10.6328046L22.6064006 10.6328046C23.4453058 10.6328046 24.1253727 11.3128716 24.1253727 12.1517767zM7.53917898 12.1517767C7.53917898 12.9906819 6.85911201 13.6707488 6.02020689 13.6707488L1.51897209 13.6707488C.68006697 13.6707488 1.02736247e-16 12.9906819 0 12.1517767-1.02736247e-16 11.3128716.68006697 10.6328046 1.51897209 10.6328046L6.02020689 10.6328046C6.85911201 10.6328046 7.53917898 11.3128716 7.53917898 12.1517767z"/>
    </g>
    <g fill="#FFD426" stroke="#FFD426" stroke-width=".878" transform="translate(112.273 28)">
      <path d="M3.79864138 38.1637174L3.98002816 38.2715211C4.0397309 38.4944841 4.15585598 38.6938277 4.3125146 38.8533704 4.49401929 39.0382167 4.72993436 39.1696361 4.99554872 39.2224628L4.99554872 39.2224628 5.12790776 39.248787 4.87870858 39.4532552C4.66073867 39.5176776 4.46693487 39.6362692 4.3125146 39.7935324 4.1310099 39.9783787 4.00391558 40.2166517 3.95594271 40.4831855L3.95594271 40.4831855 3.93556708 40.596391 3.77455593 40.3753818C3.71485319 40.1524187 3.59872811 39.9530752 3.44206949 39.7935324 3.2605648 39.6086862 3.02464973 39.4772667 2.75903537 39.42444L2.75903537 39.42444 2.62667633 39.3981158 2.87587551 39.1936477C3.09384542 39.1292252 3.28764922 39.0106336 3.44206949 38.8533704 3.62357419 38.6685242 3.75066851 38.4302512 3.79864138 38.1637174L3.79864138 38.1637174zM20.9741498 3.23215303L21.4074106 4.12365293C21.4632315 4.36383276 21.5839772 4.57846707 21.7505482 4.7481046 21.9320528 4.93295084 22.1679679 5.06437031 22.4335823 5.11719699L22.4335823 5.11719699 23.6000069 5.34918123 22.402194 5.75811117C22.1493838 5.81478317 21.9248711 5.943033 21.7505482 6.12056528 21.5690435 6.30541152 21.4419491 6.54368453 21.3939763 6.81021831L21.3939763 6.81021831 21.1890268 7.9489023 20.8195883 6.77982317C20.7676717 6.52557304 20.6434309 6.29835611 20.4688541 6.12056528 20.2873494 5.93571904 20.0514344 5.80429957 19.78582 5.75147289L19.78582 5.75147289 18.6193954 5.51948865 19.8172083 5.11055871C20.0700185 5.0538867 20.2945312 4.92563688 20.4688541 4.7481046 20.6503588 4.56325836 20.7774531 4.32498534 20.825426 4.05845157L20.825426 4.05845157 20.9741498 3.23215303z"/>
      <path/>
      <path/>
    </g>
  </g>
</svg>
