<?xml version="1.0" encoding="UTF-8"?> <svg xmlns="http://www.w3.org/2000/svg" xmlns:xlink="http://www.w3.org/1999/xlink" width="101px" height="60px" viewBox="0 0 101 60" version="1.1"><title>Feature Icon</title><g id="Landing-Page-Templates" stroke="none" stroke-width="1" fill="none" fill-rule="evenodd"><g id="Feature-Icon" transform="translate(-48.000000, -13.000000)"><g id="Group" transform="translate(48.020000, 18.000000)"><path d="M8,0 L26.496,0 C30.914278,-8.11624501e-16 34.496,3.581722 34.496,8 L34.496,20.8 C34.496,25.218278 30.914278,28.8 26.496,28.8 L18.816,28.8 L18.816,28.8 L12.6083765,33.8674478 C12.1805429,34.2166997 11.5505907,34.1529966 11.2013388,33.7251631 C11.055601,33.5466343 10.976,33.323247 10.976,33.0927866 L10.976,28.8 L10.976,28.8 L8,28.8 C3.581722,28.8 5.41083001e-16,25.218278 0,20.8 L0,8 C-5.41083001e-16,3.581722 3.581722,8.11624501e-16 8,0 Z" id="Rectangle" fill="#8A9499" opacity="0.300000012" transform="translate(17.248000, 17.600000) scale(-1, 1) translate(-17.248000, -17.600000) "></path><rect id="Rectangle" fill="#FFFFFF" x="7.84" y="10" width="15.68" height="3" rx="1.5"></rect><rect id="Rectangle" fill="#FFFFFF" x="7.84" y="16" width="9.8" height="3" rx="1.5"></rect></g><path d="M85.7304,47.56 C92.4850634,47.56 97.9608,53.0357366 97.9608,59.7904 L97.9608,66.28 L97.9608,66.28 L97.9608,67.58 C97.9608,69.1595344 96.6803344,70.44 95.1008,70.44 L76.36,70.44 C74.7804656,70.44 73.5,69.1595344 73.5,67.58 L73.5,66.28 L73.5,66.28 L73.5,59.7904 C73.5,53.0357366 78.9757366,47.56 85.7304,47.56 Z M85.7304,45.48 C90.2335089,45.48 93.884,41.7550091 93.884,37.16 C93.884,32.5649909 90.2335089,28.84 85.7304,28.84 C81.2272911,28.84 77.5768,32.5649909 77.5768,37.16 C77.5768,41.7550091 81.2272911,45.48 85.7304,45.48 Z" id="Combined-Shape" fill="#8A9499"></path><path d="M108.388,45.14 C116.181842,45.14 122.5,51.4581576 122.5,59.252 L122.5,67.28 L122.5,67.28 L122.5,68.845 C122.5,70.6979153 120.997915,72.2 119.145,72.2 L97.631,72.2 C95.7780847,72.2 94.276,70.6979153 94.276,68.845 L94.276,67.28 L94.276,67.28 L94.276,59.252 C94.276,51.4581576 100.594158,45.14 108.388,45.14 Z M108.388,42.68 C113.583895,42.68 117.796,38.2744819 117.796,32.84 C117.796,27.4055181 113.583895,23 108.388,23 C103.192105,23 98.98,27.4055181 98.98,32.84 C98.98,38.2744819 103.192105,42.68 108.388,42.68 Z" id="Combined-Shape" fill="#4070FF"></path><g id="Group" transform="translate(113.680000, 13.000000)"><path d="M8,0 L26.496,0 C30.914278,-8.11624501e-16 34.496,3.581722 34.496,8 L34.496,20.8 C34.496,25.218278 30.914278,28.8 26.496,28.8 L18.816,28.8 L18.816,28.8 L12.6083765,33.8674478 C12.1805429,34.2166997 11.5505907,34.1529966 11.2013388,33.7251631 C11.055601,33.5466343 10.976,33.323247 10.976,33.0927866 L10.976,28.8 L10.976,28.8 L8,28.8 C3.581722,28.8 5.41083001e-16,25.218278 0,20.8 L0,8 C-5.41083001e-16,3.581722 3.581722,8.11624501e-16 8,0 Z" id="Rectangle" fill="#FFD426"></path><rect id="Rectangle" fill="#FFFFFF" x="7.84" y="10" width="15.68" height="3" rx="1.5"></rect><rect id="Rectangle" fill="#FFFFFF" x="7.84" y="16" width="9.8" height="3" rx="1.5"></rect></g></g></g></svg> 