<svg xmlns="http://www.w3.org/2000/svg" width="80" height="60" viewBox="0 0 80 60"><g fill="none" fill-rule="evenodd" transform="translate(7 8)"><path stroke="#B6BDC0" stroke-linecap="round" stroke-linejoin="round" stroke-width="1.5" d="M6.835702 13.1886304 7.45048567 10.2376688C8.15894565 6.83706089 11.1560534 4.4 14.6296754 4.4L26.2666667 4.4 26.2666667 4.4M6.84144414 30.8389319 7.45048567 33.7623312C8.15894565 37.1629391 11.1560534 39.6 14.6296754 39.6L26.2666667 39.6 26.2666667 39.6"/><line x1="13.994" x2="35.8" y1="22" y2="22" stroke="#B6BDC0" stroke-linecap="round" stroke-linejoin="round" stroke-width="1.5"/><path stroke="#B6BDC0" stroke-linecap="round" stroke-linejoin="round" stroke-width="1.5" d="M43.2666667 22 44.1257924 17.8475589C44.8303361 14.4422646 47.8296211 12 51.3070355 12L55.2666667 12 55.2666667 12M43.2666667 22 44.1257924 26.1524411C44.8303361 29.5577354 47.8296211 32 51.3070355 32L55.2666667 32 55.2666667 32"/><line x1="37.838" x2="56" y1="22" y2="22" stroke="#B6BDC0" stroke-linecap="round" stroke-linejoin="round" stroke-width="1.5"/><path fill="#333C40" d="M1.2819426,20 L8.7180574,20 C9.16381677,20 9.32545989,20.0464128 9.48842285,20.1335664 C9.65138581,20.2207199 9.7792801,20.3486142 9.86643365,20.5115771 C9.95358719,20.6745401 10,20.8361832 10,21.2819426 L10,22.7180574 C10,23.1638168 9.95358719,23.3254599 9.86643365,23.4884229 C9.7792801,23.6513858 9.65138581,23.7792801 9.48842285,23.8664336 C9.32545989,23.9535872 9.16381677,24 8.7180574,24 L1.2819426,24 C0.83618323,24 0.674540111,23.9535872 0.511577148,23.8664336 C0.348614185,23.7792801 0.220719898,23.6513858 0.133566352,23.4884229 C0.0464128056,23.3254599 -4.58003254e-17,23.1638168 7.88262572e-17,22.7180574 L3.45280103e-17,21.2819426 C-2.00617683e-17,20.8361832 0.0464128056,20.6745401 0.133566352,20.5115771 C0.220719898,20.3486142 0.348614185,20.2207199 0.511577148,20.1335664 C0.674540111,20.0464128 0.83618323,20 1.2819426,20 Z"/><path fill="#3D474D" d="M17.3705534-1.0480895e-16 26.2294466 1.0480895e-16C27.2363954-8.01645382e-17 27.7763797.139238417 28.2652686.400699056 28.7541574.662159695 29.1378403 1.04584256 29.3993009 1.53473144 29.6607616 2.02362033 29.8 2.56360458 29.8 3.57055335L29.8 4.42944665C29.8 5.43639542 29.6607616 5.97637967 29.3993009 6.46526856 29.1378403 6.95415744 28.7541574 7.33784031 28.2652686 7.59930094 27.7763797 7.86076158 27.2363954 8 26.2294466 8L17.3705534 8C16.3636046 8 15.8236203 7.86076158 15.3347314 7.59930094 14.8458426 7.33784031 14.4621597 6.95415744 14.2006991 6.46526856 13.9392384 5.97637967 13.8 5.43639542 13.8 4.42944665L13.8 3.57055335C13.8 2.56360458 13.9392384 2.02362033 14.2006991 1.53473144 14.4621597 1.04584256 14.8458426.662159695 15.3347314.400699056 15.8236203.139238417 16.3636046 8.01645382e-17 17.3705534-1.0480895e-16ZM26.9038867 17.6 35.76278 17.6C36.7697288 17.6 37.309713 17.7392384 37.7986019 18.0006991 38.2874908 18.2621597 38.6711736 18.6458426 38.9326343 19.1347314 39.1940949 19.6236203 39.3333333 20.1636046 39.3333333 21.1705534L39.3333333 22.0294466C39.3333333 23.0363954 39.1940949 23.5763797 38.9326343 24.0652686 38.6711736 24.5541574 38.2874908 24.9378403 37.7986019 25.1993009 37.309713 25.4607616 36.7697288 25.6 35.76278 25.6L26.9038867 25.6C25.8969379 25.6 25.3569537 25.4607616 24.8680648 25.1993009 24.3791759 24.9378403 23.995493 24.5541574 23.7340324 24.0652686 23.4725718 23.5763797 23.3333333 23.0363954 23.3333333 22.0294466L23.3333333 21.1705534C23.3333333 20.1636046 23.4725718 19.6236203 23.7340324 19.1347314 23.995493 18.6458426 24.3791759 18.2621597 24.8680648 18.0006991 25.3569537 17.7392384 25.8969379 17.6 26.9038867 17.6ZM17.3705534 35.2 26.2294466 35.2C27.2363954 35.2 27.7763797 35.3392384 28.2652686 35.6006991 28.7541574 35.8621597 29.1378403 36.2458426 29.3993009 36.7347314 29.6607616 37.2236203 29.8 37.7636046 29.8 38.7705534L29.8 39.6294466C29.8 40.6363954 29.6607616 41.1763797 29.3993009 41.6652686 29.1378403 42.1541574 28.7541574 42.5378403 28.2652686 42.7993009 27.7763797 43.0607616 27.2363954 43.2 26.2294466 43.2L17.3705534 43.2C16.3636046 43.2 15.8236203 43.0607616 15.3347314 42.7993009 14.8458426 42.5378403 14.4621597 42.1541574 14.2006991 41.6652686 13.9392384 41.1763797 13.8 40.6363954 13.8 39.6294466L13.8 38.7705534C13.8 37.7636046 13.9392384 37.2236203 14.2006991 36.7347314 14.4621597 36.2458426 14.8458426 35.8621597 15.3347314 35.6006991 15.8236203 35.3392384 16.3636046 35.2 17.3705534 35.2Z"/><path fill="#3ECB3D" d="M57.5092038,9 L64.4907962,9 C65.3166973,9 65.6509198,9.09282561 65.9768457,9.2671327 C66.3027716,9.4414398 66.5585602,9.69722837 66.7328673,10.0231543 C66.9071744,10.3490802 67,10.6833027 67,11.5092038 L67,12.4907962 C67,13.3166973 66.9071744,13.6509198 66.7328673,13.9768457 C66.5585602,14.3027716 66.3027716,14.5585602 65.9768457,14.7328673 C65.6509198,14.9071744 65.3166973,15 64.4907962,15 L57.5092038,15 C56.6833027,15 56.3490802,14.9071744 56.0231543,14.7328673 C55.6972284,14.5585602 55.4414398,14.3027716 55.2671327,13.9768457 C55.0928256,13.6509198 55,13.3166973 55,12.4907962 L55,11.5092038 C55,10.6833027 55.0928256,10.3490802 55.2671327,10.0231543 C55.4414398,9.69722837 55.6972284,9.4414398 56.0231543,9.2671327 C56.3490802,9.09282561 56.6833027,9 57.5092038,9 Z"/><path fill="#FFAB00" d="M57.5092038,19 L64.4907962,19 C65.3166973,19 65.6509198,19.0928256 65.9768457,19.2671327 C66.3027716,19.4414398 66.5585602,19.6972284 66.7328673,20.0231543 C66.9071744,20.3490802 67,20.6833027 67,21.5092038 L67,22.4907962 C67,23.3166973 66.9071744,23.6509198 66.7328673,23.9768457 C66.5585602,24.3027716 66.3027716,24.5585602 65.9768457,24.7328673 C65.6509198,24.9071744 65.3166973,25 64.4907962,25 L57.5092038,25 C56.6833027,25 56.3490802,24.9071744 56.0231543,24.7328673 C55.6972284,24.5585602 55.4414398,24.3027716 55.2671327,23.9768457 C55.0928256,23.6509198 55,23.3166973 55,22.4907962 L55,21.5092038 C55,20.6833027 55.0928256,20.3490802 55.2671327,20.0231543 C55.4414398,19.6972284 55.6972284,19.4414398 56.0231543,19.2671327 C56.3490802,19.0928256 56.6833027,19 57.5092038,19 Z"/><path fill="#8A9499" d="M57.5092038,29 L64.4907962,29 C65.3166973,29 65.6509198,29.0928256 65.9768457,29.2671327 C66.3027716,29.4414398 66.5585602,29.6972284 66.7328673,30.0231543 C66.9071744,30.3490802 67,30.6833027 67,31.5092038 L67,32.4907962 C67,33.3166973 66.9071744,33.6509198 66.7328673,33.9768457 C66.5585602,34.3027716 66.3027716,34.5585602 65.9768457,34.7328673 C65.6509198,34.9071744 65.3166973,35 64.4907962,35 L57.5092038,35 C56.6833027,35 56.3490802,34.9071744 56.0231543,34.7328673 C55.6972284,34.5585602 55.4414398,34.3027716 55.2671327,33.9768457 C55.0928256,33.6509198 55,33.3166973 55,32.4907962 L55,31.5092038 C55,30.6833027 55.0928256,30.3490802 55.2671327,30.0231543 C55.4414398,29.6972284 55.6972284,29.4414398 56.0231543,29.2671327 C56.3490802,29.0928256 56.6833027,29 57.5092038,29 Z"/></g></svg>